<?xml version="1.0" encoding="UTF-8" standalone="no"?>
<!-- Created with Inkscape (http://www.inkscape.org/) -->

<svg
   width="210mm"
   height="297mm"
   viewBox="0 0 210 297"
   version="1.1"
   id="svg1"
   xmlns="http://www.w3.org/2000/svg"
   xmlns:svg="http://www.w3.org/2000/svg">
  <defs
     id="defs1" />
  <g
     id="layer1">
    <path
       id="path734"
       style="fill:#ffffff;fill-opacity:1;stroke:#000000;stroke-width:0.21528;stroke-dasharray:none;stroke-opacity:1"
       d="m 105.57727,15.668508 c -2.18481,0.0065 -4.38007,0.194731 -6.058958,0.562664 C 93.077224,17.645857 21.480044,57.944926 14.681988,63.981967 6.8672209,70.922012 3.1760478,82.872505 3.1404286,101.34932 c -0.039143,21.98617 2.2846113,30.3311 10.6901254,38.33581 6.094581,5.80405 68.843355,43.25662 79.929989,47.70754 11.293887,4.53409 20.288587,2.47671 42.012307,-9.60981 11.61621,-6.46301 21.12064,-12.87796 21.12064,-14.25527 0,-1.3774 -5.9387,-5.82548 -13.19687,-9.88458 l -13.19706,-7.3802 -10.70118,5.42243 c -7.79931,3.95235 -12.42313,5.07983 -17.05235,4.15813 C 99.252922,155.14763 84.054932,147.51575 68.972504,138.88301 39.24496,121.86767 33.866774,116.33985 33.853367,102.78583 33.833796,88.747598 37.89809,84.431428 67.129706,67.397289 104.69736,45.505746 105.14729,45.489405 139.22408,64.824105 c 29.70582,16.854672 34.15606,20.643015 37.33108,31.779554 1.85267,6.499211 4.23094,8.949301 14.0618,14.487271 17.27505,9.73165 17.55384,9.56794 17.501,-10.25418 -0.0489,-17.872848 -3.8317,-30.012985 -11.45721,-36.754285 -6.6775,-5.903276 -78.83629,-46.512642 -85.08872,-47.885933 -1.63583,-0.359127 -3.81007,-0.535265 -5.99476,-0.528415 z m 0.89146,6.208092 c 10.94337,0.620398 22.98868,8.11655 49.0317,23.22031 45.06775,26.137454 46.33418,27.51554 48.03059,52.26492 l 1.12553,16.42275 -11.57718,-6.64942 c -8.39406,-4.82139 -11.5766,-7.856643 -11.5766,-11.04103 0,-9.541215 -8.93249,-17.682033 -37.69557,-34.353228 C 105.84197,39.736043 105.4889,39.728901 69.858968,60.197245 55.264346,68.581428 40.49838,77.964901 37.046363,81.049474 c -5.954355,5.320159 -6.277177,6.405464 -6.277177,21.118106 0,14.51809 0.393375,15.89775 6.152803,21.57488 3.383716,3.33567 17.688003,12.69683 31.787286,20.80291 30.142158,17.32966 37.932545,19.12901 52.433325,12.10921 l 9.64729,-4.67011 9.11751,4.93178 c 5.01475,2.71262 9.43074,5.41742 9.81306,6.01071 1.3953,2.16591 -34.33944,20.91036 -41.67207,21.85877 -5.73976,0.74271 -10.258293,-0.48928 -18.831237,-5.13198 C 50.546189,158.70992 18.053959,138.26134 13.98536,132.30748 6.1319408,120.81563 5.138619,88.561772 12.216638,74.874359 15.691162,68.155565 20.814242,64.700221 64.048558,39.9159 85.683918,27.513221 95.525644,21.256593 106.46873,21.8766 Z m -1.81766,61.238976 c -8.256379,-0.01957 -15.702039,4.031121 -28.716016,11.271774 -11.869763,6.60392 -21.581539,13.13414 -21.581539,14.51154 0,1.37741 5.938893,5.82549 13.197063,9.88459 l 13.197064,7.3802 10.700597,-5.42292 c 7.799403,-3.95224 12.423231,-5.07933 17.052231,-4.15764 9.12015,1.81579 60.41749,31.65206 64.11112,37.28896 4.69753,7.16952 5.64427,19.39293 2.14966,27.75666 -2.60273,6.22923 -7.17293,9.72049 -30.46037,23.27071 C 113.8588,222.6125 104.76439,225.15966 93.145722,219.22683 89.293285,217.25946 75.282266,209.26797 62.009953,201.46798 38.602154,187.71129 37.804737,187.00859 35.401916,178.02475 33.24295,169.95234 31.435869,167.85903 21.325141,161.71699 3.8598552,151.1075 3.0754526,151.53326 3.1287832,171.58964 c 0.048932,17.90759 3.8765099,30.15361 11.4575028,36.64802 4.757788,4.07575 70.180049,41.97268 79.314581,45.9443 9.376623,4.07682 15.387933,3.66867 27.239283,-1.84974 12.96095,-6.03528 70.27393,-39.45078 75.52051,-44.03115 7.69596,-6.71851 11.41052,-18.79944 11.44595,-37.22428 0.0391,-21.98842 -2.2853,-30.33375 -10.69033,-38.32642 -3.67659,-3.49654 -23.1806,-15.83004 -43.34188,-27.4077 C 127.22183,89.92244 115.26633,83.146988 104.65107,83.115576 Z m 0.274,4.876192 c 10.10025,0.295522 22.06092,7.178517 48.89148,22.826942 26.79262,15.6262 40.36467,24.77678 43.44493,29.29081 7.86946,11.53266 8.844,43.76019 1.73897,57.49996 -3.52463,6.81567 -5.03217,7.83697 -49.22765,33.35334 -37.97618,21.9255 -44.38949,23.72739 -58.584268,16.46101 C 87.283938,245.42524 69.033467,235.05511 50.631224,224.37897 11.201593,201.50389 9.3845301,199.41548 7.7145443,175.04988 l -1.1266982,-16.43752 11.5375469,6.74493 c 8.165379,4.77373 11.549093,8.00479 11.57757,11.05581 0.08806,9.49805 9.06887,17.62968 37.834112,34.26104 38.373395,22.18648 37.994015,22.1855 76.025485,0.20843 34.99245,-20.22136 38.67442,-24.48734 37.50555,-43.45596 -1.01504,-16.47539 -4.33937,-19.88708 -38.53087,-39.54499 C 112.395,110.55195 104.60488,108.7529 90.103911,115.77269 l -9.647583,4.67021 -9.117602,-4.93177 c -5.014461,-2.71263 -9.429955,-5.41782 -9.812371,-6.01121 -0.382611,-0.593 7.306413,-5.66245 17.086295,-11.264733 11.726113,-6.716934 18.456454,-10.472691 26.31242,-10.243026 z" />
  </g>
</svg>
