<?xml version="1.0" encoding="UTF-8" standalone="no"?>
<!-- Created with Inkscape (http://www.inkscape.org/) -->

<svg
   width="210mm"
   height="297mm"
   viewBox="0 0 210 297"
   version="1.1"
   id="svg1"
   xmlns="http://www.w3.org/2000/svg"
   xmlns:svg="http://www.w3.org/2000/svg">
  <defs
     id="defs1">
    <clipPath
       clipPathUnits="userSpaceOnUse"
       id="clipPath734-1-4-6">
      <path
         id="path735-8-1-6"
         style="fill:#ffffff;fill-opacity:1;stroke:#318acb;stroke-opacity:1"
         d="m 6097.3163,3528.3801 c -10.3574,0.03 -20.765,0.9216 -28.7246,2.6699 -30.5362,6.7068 -369.9671,197.7583 -402.1953,226.3789 -37.0487,32.9015 -54.5479,89.5568 -54.7168,177.1524 -0.2009,104.2329 10.8304,143.7948 50.6797,181.7441 28.8939,27.5161 326.3757,205.0729 378.9356,226.1739 53.5427,21.4955 96.1848,11.7417 199.1738,-45.5586 55.0709,-30.6399 100.1289,-61.0522 100.1289,-67.5821 0,-6.53 -28.1539,-27.6178 -62.5645,-46.8613 l -62.5644,-34.9883 -50.7324,25.7071 c -36.9757,18.737 -58.896,24.0823 -80.8418,19.7128 -16.5606,-3.2973 -88.6124,-39.4797 -160.1153,-80.4062 -140.9342,-80.6673 -166.4309,-106.8736 -166.4941,-171.1309 -0.065,-66.5529 19.1752,-87.0153 157.7578,-167.7715 178.1014,-103.7844 180.235,-103.8615 341.7871,-12.1992 140.831,79.9055 161.9289,97.8656 176.9805,150.6621 8.784,30.8114 20.0579,42.4272 66.664,68.6817 81.8992,46.1361 83.2209,45.3601 82.9707,-48.6133 -0.2256,-84.7324 -18.1657,-142.2869 -54.3164,-174.2461 -31.6573,-27.9869 -373.7513,-220.5092 -403.3925,-227.0195 -7.755,-1.7033 -18.0626,-2.5356 -28.42,-2.5059 z m 4.2266,29.4317 c 51.8804,2.9392 108.9858,38.4791 232.4512,110.0839 213.6588,123.9131 219.663,130.4468 227.705,247.7793 l 5.336,77.8575 -54.8848,-31.5235 c -39.7963,-22.8578 -54.8828,-37.2473 -54.8828,-52.3437 0,-45.2336 -42.3477,-83.8277 -178.709,-162.8633 -179.9868,-104.3213 -181.6606,-104.3552 -350.5761,-7.3184 -69.1911,39.7482 -139.1939,84.2339 -155.5606,98.8575 -28.2282,25.2219 -29.7578,30.367 -29.7578,100.1171 0,68.8279 1.8654,75.369 29.168,102.2832 16.0421,15.814 83.8572,60.1935 150.6992,98.6231 142.8989,82.1572 179.8316,90.6878 248.5781,57.4082 l 45.7363,-22.1406 43.2246,23.3808 c 23.7738,12.8601 44.7092,25.6831 46.5215,28.4961 6.6156,10.2683 -162.797,99.1324 -197.5605,103.6289 -27.2111,3.5196 -48.6324,-2.3183 -89.2754,-24.33 -183.333,-99.2916 -337.3731,-196.2347 -356.6621,-224.461 -37.2311,-54.4812 -41.9407,-207.3913 -8.3848,-272.2812 16.4717,-31.8528 40.7597,-48.2338 245.7266,-165.7325 102.57,-58.799 149.2269,-88.4606 201.1074,-85.5214 z m -8.6172,290.3242 c -39.1423,-0.1157 -74.441,19.1107 -136.1387,53.4375 -56.2721,31.3083 -102.3144,62.2671 -102.3144,68.7968 0,6.5301 28.1558,27.6178 62.5664,46.8614 l 62.5644,34.9883 50.7305,-25.709 c 36.9757,-18.737 58.896,-24.0805 80.8418,-19.711 43.236,8.6086 286.4295,150.0576 303.9395,176.7813 22.2707,33.9893 26.7587,91.9386 10.1914,131.5898 -12.3392,29.5318 -34.0057,46.0832 -144.4082,110.3223 -144.321,83.9749 -187.4353,96.0506 -242.5176,67.9238 -18.265,-9.3267 -84.6887,-47.2132 -147.6094,-84.1914 -110.9733,-65.2184 -114.7533,-68.5499 -126.1445,-111.1406 -10.2357,-38.2701 -18.8025,-48.1943 -66.7363,-77.3125 -82.7995,-50.2981 -86.5188,-48.2797 -86.2657,46.8047 0.226,84.8967 18.3771,142.9532 54.3184,173.7422 22.556,19.3225 332.7124,198.9857 376.0176,217.8144 44.4526,19.3276 72.9522,17.3927 129.1367,-8.7695 61.4458,-28.6122 333.1578,-187.0293 358.0312,-208.7442 36.4844,-31.8514 54.0953,-89.1253 54.2637,-176.4746 0.2009,-104.2437 -10.8359,-143.8075 -50.6816,-181.6992 -17.4313,-16.5764 -109.8952,-75.0476 -205.4766,-129.9355 -127.3041,-73.1047 -183.9828,-105.2262 -234.3086,-105.375 z m 1.3008,23.1172 c 47.8844,1.3998 104.5882,34.0324 231.7871,108.2187 127.019,74.0812 191.362,117.4628 205.9648,138.8633 37.3074,54.6743 41.9283,207.4597 8.2442,272.5977 -16.7094,32.3123 -23.8566,37.154 -233.3809,158.123 -180.0385,103.9455 -210.4433,112.4878 -277.7383,78.0391 -18.5095,-9.4751 -105.0333,-58.6383 -192.2753,-109.252 -186.9294,-108.4472 -195.5436,-118.3481 -203.461,-233.8613 l -5.3418,-77.9278 54.6973,31.9766 c 38.7116,22.6316 54.753,37.9494 54.8887,52.4141 0.4223,45.0285 42.9938,83.5791 179.3652,162.4257 181.9217,105.1829 180.1233,105.1782 360.4238,0.9864 165.8936,-95.8663 183.349,-116.0903 177.8086,-206.0176 -4.8122,-78.1074 -20.5725,-94.2816 -182.6699,-187.4766 -142.899,-82.1572 -179.8296,-90.6858 -248.5762,-57.4062 l -45.7383,22.1406 -43.2246,-23.3808 c -23.7738,-12.86 -44.7071,-25.6849 -46.5195,-28.4981 -1.8123,-2.8128 34.639,-26.845 81.0039,-53.4043 55.5904,-31.8441 87.4989,-49.6492 124.7422,-48.5605 z" />
    </clipPath>
  </defs>
  <g
     id="layer1">
    <path
       id="rect732"
       style="fill:#000000;fill-opacity:1;stroke:#318acb;stroke-width:0.209398;stroke-opacity:1"
       d="m 105.36327,12.511865 c -2.16877,0.0064 -4.34814,0.193273 -6.014738,0.558769 C 92.954398,14.475021 21.878592,54.480576 15.130076,60.473663 7.3723201,67.363174 3.7079796,79.226591 3.67254,97.568865 c -0.041145,21.825965 2.2679626,30.110105 10.612052,38.056595 6.050486,5.76173 68.342065,42.9416 79.34806,47.36009 11.211678,4.50106 20.140668,2.45868 41.706338,-9.53984 11.53158,-6.41589 20.96669,-12.78413 20.96669,-14.1515 0,-1.36735 -5.89528,-5.78307 -13.10071,-9.81262 l -13.10089,-7.32638 -10.62312,5.38294 c -7.74272,3.92354 -12.33276,5.0428 -16.92817,4.12781 C 99.085098,150.97515 83.997718,143.39904 69.025199,134.82921 39.514135,117.93773 34.175123,112.45021 34.161833,98.994874 34.145563,85.058938 38.177241,80.77421 67.195794,63.864072 104.48977,42.131966 104.9364,42.115797 138.76507,61.309617 c 29.48956,16.731982 33.9073,20.492768 37.05915,31.548171 1.83925,6.45178 4.20006,8.884152 13.95919,14.381712 17.14933,9.66077 17.42614,9.49821 17.3737,-10.179461 -0.0478,-17.742743 -3.80374,-29.794459 -11.37362,-36.486581 -6.62898,-5.860381 -78.26244,-46.173928 -84.46909,-47.537077 -1.62389,-0.356885 -3.78222,-0.531022 -5.95113,-0.525282 z m 0.88503,6.16292 c 10.86361,0.61522 22.82141,8.057348 48.67462,23.051212 44.73942,25.946987 45.99674,27.315111 47.6807,51.884215 l 1.11735,16.303058 -11.49266,-6.60095 c -8.33322,-4.786278 -11.49238,-7.799422 -11.49238,-10.960583 0,-9.471713 -8.86743,-17.5532 -37.421,-34.103009 C 105.62622,36.404198 105.27577,36.397022 69.905337,56.716227 55.417111,65.039401 40.75863,74.354582 37.331452,77.416715 c -5.910947,5.281326 -6.231168,6.358775 -6.231168,20.964183 0,14.412322 0.390661,15.782082 6.10776,21.417802 3.359151,3.31138 17.559287,12.60436 31.555959,20.65131 29.922573,17.20349 37.655957,18.98974 52.051477,12.0211 l 9.57688,-4.63617 9.05114,4.89593 c 4.97812,2.69282 9.362,5.37797 9.74156,5.96697 1.38515,2.15012 -34.08924,20.758 -41.36856,21.69958 -5.698,0.73674 -10.183611,-0.48509 -18.694131,-5.09466 C 50.733092,154.51138 18.477687,134.21188 14.438541,128.30137 6.6423412,116.89319 5.6562089,84.874275 12.682704,71.286519 16.131879,64.616689 21.217751,61.186572 64.137097,36.582642 85.614809,24.270418 95.3847,18.059372 106.2483,18.674785 Z m -1.80439,60.79292 c -8.196171,-0.0287 -15.587502,4.001706 -28.506907,11.189641 -11.783286,6.55587 -21.424391,13.038554 -21.424391,14.405824 0,1.36745 5.895915,5.78307 13.10135,9.81262 l 13.100718,7.32648 10.622807,-5.38342 c 7.742406,-3.92344 12.332763,-5.04232 16.928023,-4.12743 9.0535,1.8027 59.97742,31.42169 63.64381,37.01751 4.6636,7.11723 5.60336,19.25161 2.13411,27.5545 -2.5839,6.18378 -7.12063,9.64959 -30.23853,23.1011 -30.22048,17.5841 -39.24851,20.11272 -50.782455,14.22296 C 89.197669,212.63457 75.288812,204.7013 62.113415,196.95813 38.875913,183.30158 38.084537,182.60398 35.699185,173.68569 33.555894,165.67203 31.762081,163.59396 21.724978,157.49668 4.3868748,146.96436 3.6081568,147.38707 3.6611642,167.29743 c 0.047841,17.7771 3.8480153,29.93397 11.3739878,36.38105 4.723255,4.0461 69.668988,41.66697 78.736896,45.60964 9.308382,4.04716 15.275982,3.64195 27.040912,-1.83629 12.86656,-5.99136 69.7622,-39.16331 74.97053,-43.71039 7.63982,-6.66954 11.32742,-18.66251 11.36253,-36.95321 0.0383,-21.82826 -2.26876,-30.11279 -10.61231,-38.04721 -3.65028,-3.47107 -23.01193,-15.71472 -43.02615,-27.20814 -26.65724,-15.307895 -38.5255,-22.033984 -49.06365,-22.065175 z m 0.27239,4.840722 c 10.02683,0.292779 21.90046,7.126221 48.53555,22.660583 26.59724,15.51245 40.07056,24.59638 43.12838,29.07753 7.81197,11.44865 8.77958,43.44144 1.72626,57.08116 -3.49891,6.76608 -4.99562,7.7799 -48.86927,33.11043 -37.6993,21.76587 -44.06606,23.5546 -58.157503,16.34113 C 87.203848,240.59523 69.08608,230.30059 50.817855,219.70224 11.675494,196.99373 9.8715584,194.92054 8.2138218,170.73243 l -1.1185613,-16.31778 11.4534205,6.69576 c 8.106135,4.73901 11.465123,7.94649 11.493444,10.97532 0.08899,9.42885 9.002883,17.50124 37.558663,34.01144 38.093732,22.02498 37.717192,22.02392 75.471572,0.20667 34.7376,-20.07417 38.39256,-24.30896 37.23254,-43.13948 -1.00759,-16.35538 -4.30778,-19.74225 -38.25048,-39.25698 -29.92257,-17.2035 -37.6558,-18.98935 -52.051013,-12.02073 l -9.577506,4.63626 -9.051135,-4.89593 c -4.978127,-2.69281 -9.361538,-5.37835 -9.740927,-5.96744 -0.379561,-0.58939 7.253208,-5.62118 16.961872,-11.182661 C 90.236138,87.808866 96.91758,84.080518 104.7163,84.308521 Z" />
  </g>
</svg>
